<svg width="117" height="131" viewBox="0 0 117 131" fill="none" xmlns="http://www.w3.org/2000/svg">
    <path d="M90.3496 54.7876L116 105.429" stroke="#FFF8F8"/>
    <path d="M93.6025 84.9568L112.747 75.2597" stroke="#FFF8F8"/>
    <path d="M81.0039 0V25.6142" stroke="#FFF8F8"/>
    <path d="M68.1973 12.8071L93.8115 12.8071" stroke="#FFF8F8"/>
    <path d="M71.9482 3.75098L90.0602 21.863" stroke="#FFF8F8"/>
    <path d="M90.0605 3.75098L71.9486 21.863" stroke="#FFF8F8"/>
    <circle r="13.5" transform="matrix(-1 0 0 1 14 110)" stroke="#FFF8F8"/>
    <path d="M61.5 123.5C61.5 127.399 64.4421 130.5 68 130.5C71.5579 130.5 74.5 127.399 74.5 123.5C74.5 119.601 71.5579 116.5 68 116.5C64.4421 116.5 61.5 119.601 61.5 123.5Z" stroke="#FFF8F8"/>
    <rect x="-0.707107" width="12.1533" height="12.1533" transform="matrix(-0.707107 -0.707107 -0.707107 0.707107 59.9765 55.8755)" stroke="#FFF8F8"/>
</svg>
