<svg width="106" height="157" viewBox="0 0 106 157" fill="none" xmlns="http://www.w3.org/2000/svg">
<path d="M13.0381 132.472L64.4972 156.439" stroke="#FFF8F8"/>
<path d="M43.2979 134.728L34.2372 154.182" stroke="#FFF8F8"/>
<path d="M60.9199 51.6902V77.3044" stroke="#FFF8F8"/>
<path d="M73.7275 64.4973L48.1133 64.4973" stroke="#FFF8F8"/>
<path d="M69.9766 55.4412L51.8646 73.5532" stroke="#FFF8F8"/>
<path d="M51.8643 55.4412L69.9762 73.5532" stroke="#FFF8F8"/>
<circle cx="27" cy="14" r="13.5" stroke="#FFF8F8"/>
<path d="M14.5 72C14.5 75.5579 11.399 78.5 7.5 78.5C3.60096 78.5 0.5 75.5579 0.5 72C0.5 68.4421 3.60096 65.5 7.5 65.5C11.399 65.5 14.5 68.4421 14.5 72Z" stroke="#FFF8F8"/>
<rect x="87.7071" y="114.301" width="12.1533" height="12.1533" transform="rotate(-45 87.7071 114.301)" stroke="#FFF8F8"/>
</svg>
